<mxfile host="app.diagrams.net" modified="2022-09-15T10:34:40.073Z" agent="5.0 (Windows NT 10.0; Win64; x64) AppleWebKit/537.36 (KHTML, like Gecko) Chrome/105.0.0.0 Safari/537.36 Edg/105.0.1343.33" etag="To1bFYICmwCEAs8Fiz4y" version="20.3.0" type="github">
  <diagram id="uSkm2N8a80j5IDCSkfjY" name="PÃ¡gina-1">
    <mxGraphModel dx="1422" dy="794" grid="1" gridSize="10" guides="1" tooltips="1" connect="1" arrows="1" fold="1" page="1" pageScale="1" pageWidth="827" pageHeight="1169" math="0" shadow="0">
      <root>
        <mxCell id="0" />
        <mxCell id="1" parent="0" />
        <mxCell id="WuyQ2u27ICyzMPzFgXhq-1" value="lib" style="shape=folder;fontStyle=1;spacingTop=10;tabWidth=40;tabHeight=14;tabPosition=left;html=1;" vertex="1" parent="1">
          <mxGeometry x="260" y="110" width="70" height="50" as="geometry" />
        </mxCell>
        <mxCell id="WuyQ2u27ICyzMPzFgXhq-2" value="UI" style="shape=folder;fontStyle=1;spacingTop=10;tabWidth=40;tabHeight=14;tabPosition=left;html=1;" vertex="1" parent="1">
          <mxGeometry x="260" y="180" width="70" height="50" as="geometry" />
        </mxCell>
        <mxCell id="WuyQ2u27ICyzMPzFgXhq-4" value="&lt;font style=&quot;font-size: 10px;&quot;&gt;MainWindow&lt;/font&gt;" style="shape=note;size=20;whiteSpace=wrap;html=1;" vertex="1" parent="1">
          <mxGeometry x="320" y="250" width="70" height="70" as="geometry" />
        </mxCell>
        <mxCell id="WuyQ2u27ICyzMPzFgXhq-5" value="&lt;font style=&quot;font-size: 10px;&quot;&gt;ToolBar&lt;/font&gt;" style="shape=note;size=20;whiteSpace=wrap;html=1;" vertex="1" parent="1">
          <mxGeometry x="320" y="340" width="70" height="70" as="geometry" />
        </mxCell>
        <mxCell id="WuyQ2u27ICyzMPzFgXhq-6" value="&lt;font style=&quot;font-size: 10px;&quot;&gt;MenuBar&lt;/font&gt;" style="shape=note;size=20;whiteSpace=wrap;html=1;" vertex="1" parent="1">
          <mxGeometry x="320" y="420" width="70" height="70" as="geometry" />
        </mxCell>
        <mxCell id="WuyQ2u27ICyzMPzFgXhq-7" value="&lt;font style=&quot;font-size: 10px;&quot;&gt;DeviceList&lt;/font&gt;" style="shape=note;size=20;whiteSpace=wrap;html=1;" vertex="1" parent="1">
          <mxGeometry x="320" y="510" width="70" height="70" as="geometry" />
        </mxCell>
        <mxCell id="WuyQ2u27ICyzMPzFgXhq-8" value="&lt;font style=&quot;font-size: 10px;&quot;&gt;FileBrowser&lt;/font&gt;" style="shape=note;size=20;whiteSpace=wrap;html=1;" vertex="1" parent="1">
          <mxGeometry x="320" y="600" width="70" height="70" as="geometry" />
        </mxCell>
        <mxCell id="WuyQ2u27ICyzMPzFgXhq-9" value="&lt;font style=&quot;font-size: 10px;&quot;&gt;GraphWindow&lt;/font&gt;" style="shape=note;size=20;whiteSpace=wrap;html=1;" vertex="1" parent="1">
          <mxGeometry x="320" y="690" width="70" height="70" as="geometry" />
        </mxCell>
        <mxCell id="WuyQ2u27ICyzMPzFgXhq-10" value="&lt;font style=&quot;font-size: 10px;&quot;&gt;AngleGraph&lt;/font&gt;" style="shape=note;size=20;whiteSpace=wrap;html=1;" vertex="1" parent="1">
          <mxGeometry x="320" y="780" width="70" height="70" as="geometry" />
        </mxCell>
      </root>
    </mxGraphModel>
  </diagram>
</mxfile>
